PathFileType	4	(X/Y/Z)	C:/Users/opensim2020/Desktop/walking_exp_matlab/subject03_walking09_straight_01.trc																																																																																																																																											
DataRate	CameraRate	NumFrames	NumMarkers	Units	OrigDataRate	OrigDataStartFrame	OrigNumFrames																																																																																																																																							
100	100	4	47	mm	100	625	493																																																																																																																																							
Frame#	Time	LFHD			RFHD			LBHD			RBHD			C7			T10			CLAV			STRN			RBAK			LSHO			LUPA			LELB			LFRM			LWRA			LWRB			LFIN			RSHO			RUPA			RELB			RFRM			RWRA			RWRB			RFIN			LASI			RASI			LPSI			RPSI			LTHI			LKNE			LTIB			LANK			LHEE			LTOE			RTHI			RKNE			RTIB			RANK			RHEE			RTOE			*39			*40			*41			*42			*43			*44			*45			*46		
		X1	Y1	Z1	X2	Y2	Z2	X3	Y3	Z3	X4	Y4	Z4	X5	Y5	Z5	X6	Y6	Z6	X7	Y7	Z7	X8	Y8	Z8	X9	Y9	Z9	X10	Y10	Z10	X11	Y11	Z11	X12	Y12	Z12	X13	Y13	Z13	X14	Y14	Z14	X15	Y15	Z15	X16	Y16	Z16	X17	Y17	Z17	X18	Y18	Z18	X19	Y19	Z19	X20	Y20	Z20	X21	Y21	Z21	X22	Y22	Z22	X23	Y23	Z23	X24	Y24	Z24	X25	Y25	Z25	X26	Y26	Z26	X27	Y27	Z27	X28	Y28	Z28	X29	Y29	Z29	X30	Y30	Z30	X31	Y31	Z31	X32	Y32	Z32	X33	Y33	Z33	X34	Y34	Z34	X35	Y35	Z35	X36	Y36	Z36	X37	Y37	Z37	X38	Y38	Z38	X39	Y39	Z39	X40	Y40	Z40	X41	Y41	Z41	X42	Y42	Z42	X43	Y43	Z43	X44	Y44	Z44	X45	Y45	Z45	X46	Y46	Z46	X47	Y47	Z47
																																																																																																																																														
1	0	-1325.84827	1607.69214	-1064.14124	-1342.03442	1616.58313	-933.3515	-1459.16895	1582.32544	-1075.2572	-1470.17871	1590.17188	-944.38391	-1514.45569	1425.24487	-1013.9646	-1576.24805	1115.80261	-1003.02832	-1396.37805	1340.85205	-1007.95532	-1370.16541	1171.68945	-1009.87079	-1580.90613	1257.00073	-912.43121	-1438.91846	1378.48816	-1163.01099	-1429.14026	1191.19702	-1246.11121	-1402.15173	1073.75049	-1269.35315	-1348.81067	955.84637	-1276.06323	-1303.19324	844.86212	-1251.78235	-1326.13867	847.07367	-1303.37842	-1286.9917	772.39081	-1299.58008	-1445.38586	1375.18762	-849.71082	-1462.60632	1157.16113	-766.25433	-1453.7738	1045.50732	-746.60583	-1439.29285	909.62891	-739.45483	-1409.12219	813.1084	-772.13495	-1440.50391	809.44678	-728.33173	-1419.95349	737.33228	-737.78558	-1434.88428	931.86206	-1116.73669	-1425.33887	942.82959	-881.80151	-1593.36707	976.16772	-1059.58289	-1583.18713	983.9519	-912.84222	-1529.91516	638.12549	-1146.69324	-1540.54236	460.63727	-1108.17834	-1607.19019	277.6528	-1108.74365	-1636.39648	66.2128	-1070.24109	-1669.99341	30.60959	-1030.21301	-1482.10266	28.28254	-1072.47986	-1431.3855	657.638	-828.42944	-1384.50854	484.44482	-863.01605	-1406.21338	293.83878	-854.90173	-1401.82727	76.03532	-896.74274	-1441.95154	41.25414	-949.89362	-1262.2428	43.35421	-914.19019	NaN	NaN	NaN	NaN	NaN	NaN	NaN	NaN	NaN	NaN	NaN	NaN	NaN	NaN	NaN	NaN	NaN	NaN	NaN	NaN	NaN	NaN	NaN	NaN
2	0.01	-1323.25146	1607.27563	-1064.39771	-1339.75732	1616.36401	-933.88159	-1456.65894	1581.8999	-1075.99426	-1467.86658	1589.94336	-945.1131	-1511.80981	1424.93042	-1014.90149	-1573.81641	1115.46558	-1004.49744	-1392.61816	1340.27429	-1007.3963	-1365.15942	1171.36975	-1008.67804	-1578.90784	1256.54431	-914.01819	-1435.40247	1378.177	-1163.57312	-1424.94092	1190.17114	-1245.11951	-1398.34082	1072.54504	-1267.51221	-1345.97241	954.32056	-1273.58533	-1301.4873	843.07233	-1248.43774	-1323.4801	844.84814	-1299.70349	-1285.46118	770.12079	-1295.29224	-1443.89502	1374.63672	-850.32666	-1462.16736	1156.55029	-767.42706	-1453.72437	1044.78296	-748.01703	-1439.698	908.79407	-741.03088	-1409.37573	812.33563	-773.74585	-1441.15723	808.56671	-730.30341	-1420.7804	736.44031	-739.64502	-1431.32935	931.30548	-1118.23059	-1423.36353	942.19409	-882.68958	-1590.67932	975.83063	-1061.15894	-1581.06189	983.6026	-914.3609	-1527.42725	637.88025	-1147.66614	-1539.026	460.32358	-1109.03894	-1606.10681	277.62564	-1109.38721	-1636.20935	66.23579	-1070.42578	-1669.96387	30.78416	-1030.38245	-1482.0426	28.22167	-1072.5271	-1431.14575	656.56213	-829.03607	-1384.38403	483.48276	-864.6236	-1402.50732	293.29926	-856.53857	-1392.79919	75.6518	-898.06512	-1432.85999	41.17246	-951.79126	-1252.69141	43.7177	-915.16016	NaN	NaN	NaN	NaN	NaN	NaN	NaN	NaN	NaN	NaN	NaN	NaN	NaN	NaN	NaN	NaN	NaN	NaN	NaN	NaN	NaN	NaN	NaN	NaN
3	0.02	-1321.04614	1607.1615	-1065.3606	-1337.37781	1616.15393	-934.32391	-1454.07251	1581.46228	-1076.5647	-1465.59985	1589.77307	-945.6806	-1509.15063	1424.64795	-1015.73364	-1571.25879	1115.14417	-1005.86395	-1391.66345	1340.3844	-1008.58923	-1360.53088	1171.89526	-1007.26849	-1576.7854	1256.05579	-915.40765	-1431.97351	1377.94336	-1164.06909	-1421.28577	1189.59399	-1244.70264	-1394.90649	1071.59204	-1266.11499	-1343.3761	952.87396	-1271.05981	-1299.97278	841.3111	-1244.82971	-1321.45496	843.24542	-1296.51306	-1284.11572	767.84808	-1291.07849	-1442.03589	1374.13672	-850.7475	-1461.28357	1155.82275	-768.64636	-1453.47229	1043.99048	-749.39136	-1439.77136	908.00696	-742.6452	-1409.50818	811.51477	-775.33093	-1441.58679	807.70624	-732.22211	-1421.39001	735.5885	-741.54535	-1428.21094	931.0058	-1119.19849	-1421.27112	941.55817	-883.57123	-1587.63586	975.62531	-1062.77478	-1578.76208	983.23297	-915.8501	-1526.45959	635.95386	-1148.1333	-1541.40039	457.98981	-1107.98389	-1605.02319	277.63376	-1109.91431	-1636.39478	66.53486	-1070.27356	-1669.96521	31.06955	-1030.2876	-1482.08789	28.23023	-1072.552	-1431.04944	655.31195	-829.64185	-1384.09338	482.39401	-866.26025	-1398.89929	292.85129	-857.99677	-1384.52454	75.49214	-899.08344	-1423.70447	40.50632	-952.79016	-1243.80322	44.24284	-915.87793	NaN	NaN	NaN	NaN	NaN	NaN	NaN	NaN	NaN	NaN	NaN	NaN	NaN	NaN	NaN	NaN	NaN	NaN	NaN	NaN	NaN	NaN	NaN	NaN
4	0.03	-1318.18872	1606.63428	-1065.11682	-1335.09399	1616.00146	-934.59296	-1451.46802	1581.07104	-1077.02991	-1463.10657	1589.43945	-946.20862	-1506.55383	1424.46484	-1016.45251	-1570.90552	1116.60327	-1006.0036	-1389.37244	1339.66248	-1009.23047	-1359.85217	1171.06934	-1009.46838	-1574.56604	1255.56958	-916.73749	-1428.39124	1377.68262	-1164.44995	-1418.01099	1189.19067	-1244.47998	-1391.66895	1070.59778	-1264.31726	-1340.81714	951.36505	-1268.16125	-1298.45947	839.61017	-1241.12451	-1319.60962	841.63257	-1293.32275	-1284.25989	765.27856	-1287.18396	-1440.2196	1373.52661	-851.10297	-1460.47168	1155.1803	-769.64301	-1453.01416	1043.22876	-750.68658	-1439.71289	907.21924	-744.17822	-1409.33582	810.72064	-776.89124	-1441.85144	806.8479	-734.01575	-1421.8844	734.71875	-743.44977	-1425.62793	930.81958	-1119.65247	-1419.02808	940.95544	-884.45093	-1584.94592	975.30627	-1064.15662	-1576.31152	982.81879	-917.31818	-1521.76172	636.04962	-1150.21436	-1540.04468	457.67831	-1108.54297	-1604.19543	277.65186	-1110.24792	-1636.15088	66.69289	-1070.42139	-1669.87659	31.35863	-1030.34143	-1482.00513	28.18369	-1072.64307	-1430.85425	653.85962	-830.17267	-1383.46838	481.29419	-867.85468	-1395.24731	292.41653	-859.32129	-1376.78467	75.29853	-900.1178	-1415.61316	40.26155	-954.01544	-1235.66748	44.65488	-916.36713	NaN	NaN	NaN	NaN	NaN	NaN	NaN	NaN	NaN	NaN	NaN	NaN	NaN	NaN	NaN	NaN	NaN	NaN	NaN	NaN	NaN	NaN	NaN	NaN
